<?xml version="1.0" encoding="UTF-8" standalone="no"?>
<!DOCTYPE svg PUBLIC "-//W3C//DTD SVG 1.1//EN"
 "http://www.w3.org/Graphics/SVG/1.1/DTD/svg11.dtd">
<!-- Generated by graphviz version 2.43.0 (0)
 -->
<!-- Title: fx_graph Pages: 1 -->
<svg width="478pt" height="474pt"
 viewBox="0.00 0.00 478.00 474.00" xmlns="http://www.w3.org/2000/svg" xmlns:xlink="http://www.w3.org/1999/xlink">
<g id="graph0" class="graph" transform="scale(1 1) rotate(0) translate(4 470)">
<title>fx_graph</title>
<polygon fill="white" stroke="transparent" points="-4,4 -4,-470 474,-470 474,4 -4,4"/>
<!-- arg0_1 -->
<g id="node1" class="node">
<title>arg0_1</title>
<path fill="AliceBlue" stroke="black" d="M162.5,-373.5C162.5,-373.5 307.5,-373.5 307.5,-373.5 313.5,-373.5 319.5,-379.5 319.5,-385.5 319.5,-385.5 319.5,-453.5 319.5,-453.5 319.5,-459.5 313.5,-465.5 307.5,-465.5 307.5,-465.5 162.5,-465.5 162.5,-465.5 156.5,-465.5 150.5,-459.5 150.5,-453.5 150.5,-453.5 150.5,-385.5 150.5,-385.5 150.5,-379.5 156.5,-373.5 162.5,-373.5"/>
<text text-anchor="middle" x="235" y="-450.3" font-family="Times,serif" font-size="14.00" fill="#000000">name=%arg0_1</text>
<polyline fill="none" stroke="black" points="150.5,-442.5 319.5,-442.5 "/>
<text text-anchor="middle" x="235" y="-427.3" font-family="Times,serif" font-size="14.00" fill="#000000">op_code=placeholder</text>
<polyline fill="none" stroke="black" points="150.5,-419.5 319.5,-419.5 "/>
<text text-anchor="middle" x="235" y="-404.3" font-family="Times,serif" font-size="14.00" fill="#000000">target=arg0_1</text>
<polyline fill="none" stroke="black" points="150.5,-396.5 319.5,-396.5 "/>
<text text-anchor="middle" x="235" y="-381.3" font-family="Times,serif" font-size="14.00" fill="#000000">num_users=1</text>
</g>
<!-- buf0 -->
<g id="node2" class="node">
<title>buf0</title>
<path fill="#ffe7ba" stroke="black" d="M12,-129.5C12,-129.5 458,-129.5 458,-129.5 464,-129.5 470,-135.5 470,-141.5 470,-141.5 470,-324.5 470,-324.5 470,-330.5 464,-336.5 458,-336.5 458,-336.5 12,-336.5 12,-336.5 6,-336.5 0,-330.5 0,-324.5 0,-324.5 0,-141.5 0,-141.5 0,-135.5 6,-129.5 12,-129.5"/>
<text text-anchor="middle" x="235" y="-321.3" font-family="Times,serif" font-size="14.00" fill="#000000">name=%buf0</text>
<polyline fill="none" stroke="black" points="0,-313.5 470,-313.5 "/>
<text text-anchor="middle" x="235" y="-298.3" font-family="Times,serif" font-size="14.00" fill="#000000">op_code=call_function</text>
<polyline fill="none" stroke="black" points="0,-290.5 470,-290.5 "/>
<text text-anchor="middle" x="235" y="-275.3" font-family="Times,serif" font-size="14.00" fill="#000000">target=torch._inductor.debug.compute: fused_add_cos_pow_sin</text>
<polyline fill="none" stroke="black" points="0,-267.5 470,-267.5 "/>
<text text-anchor="middle" x="235" y="-252.3" font-family="Times,serif" font-size="14.00" fill="#000000">kwargs={device: cpu,}</text>
<polyline fill="none" stroke="black" points="0,-244.5 470,-244.5 "/>
<text text-anchor="middle" x="235" y="-229.3" font-family="Times,serif" font-size="14.00" fill="#000000">num_users=1</text>
<polyline fill="none" stroke="black" points="0,-221.5 470,-221.5 "/>
<text text-anchor="middle" x="235" y="-206.3" font-family="Times,serif" font-size="14.00" fill="#000000">dtype=None</text>
<polyline fill="none" stroke="black" points="0,-198.5 470,-198.5 "/>
<text text-anchor="middle" x="235" y="-183.3" font-family="Times,serif" font-size="14.00" fill="#000000">shape=((10,), ())</text>
<polyline fill="none" stroke="black" points="0,-175.5 470,-175.5 "/>
<text text-anchor="middle" x="235" y="-160.3" font-family="Times,serif" font-size="14.00" fill="#000000">requires_grad=None</text>
<polyline fill="none" stroke="black" points="0,-152.5 470,-152.5 "/>
<text text-anchor="middle" x="235" y="-137.3" font-family="Times,serif" font-size="14.00" fill="#000000">stride=None</text>
</g>
<!-- arg0_1&#45;&gt;buf0 -->
<g id="edge1" class="edge">
<title>arg0_1&#45;&gt;buf0</title>
<path fill="none" stroke="black" d="M235,-373.37C235,-365.06 235,-356.06 235,-346.77"/>
<polygon fill="black" stroke="black" points="238.5,-346.59 235,-336.59 231.5,-346.59 238.5,-346.59"/>
</g>
<!-- output -->
<g id="node3" class="node">
<title>output</title>
<path fill="PowderBlue" stroke="black" d="M180.5,-0.5C180.5,-0.5 289.5,-0.5 289.5,-0.5 295.5,-0.5 301.5,-6.5 301.5,-12.5 301.5,-12.5 301.5,-80.5 301.5,-80.5 301.5,-86.5 295.5,-92.5 289.5,-92.5 289.5,-92.5 180.5,-92.5 180.5,-92.5 174.5,-92.5 168.5,-86.5 168.5,-80.5 168.5,-80.5 168.5,-12.5 168.5,-12.5 168.5,-6.5 174.5,-0.5 180.5,-0.5"/>
<text text-anchor="middle" x="235" y="-77.3" font-family="Times,serif" font-size="14.00" fill="#000000">name=%output</text>
<polyline fill="none" stroke="black" points="168.5,-69.5 301.5,-69.5 "/>
<text text-anchor="middle" x="235" y="-54.3" font-family="Times,serif" font-size="14.00" fill="#000000">op_code=output</text>
<polyline fill="none" stroke="black" points="168.5,-46.5 301.5,-46.5 "/>
<text text-anchor="middle" x="235" y="-31.3" font-family="Times,serif" font-size="14.00" fill="#000000">target=output</text>
<polyline fill="none" stroke="black" points="168.5,-23.5 301.5,-23.5 "/>
<text text-anchor="middle" x="235" y="-8.3" font-family="Times,serif" font-size="14.00" fill="#000000">num_users=0</text>
</g>
<!-- buf0&#45;&gt;output -->
<g id="edge2" class="edge">
<title>buf0&#45;&gt;output</title>
<path fill="none" stroke="black" d="M235,-129.5C235,-120.3 235,-111.24 235,-102.69"/>
<polygon fill="black" stroke="black" points="238.5,-102.53 235,-92.53 231.5,-102.53 238.5,-102.53"/>
</g>
</g>
</svg>
