<?xml version="1.0" encoding="UTF-8" standalone="no"?>
<!DOCTYPE svg PUBLIC "-//W3C//DTD SVG 1.1//EN"
 "http://www.w3.org/Graphics/SVG/1.1/DTD/svg11.dtd">
<!-- Generated by graphviz version 2.43.0 (0)
 -->
<!-- Title: fx_graph Pages: 1 -->
<svg width="1058pt" height="1218pt"
 viewBox="0.00 0.00 1058.00 1218.00" xmlns="http://www.w3.org/2000/svg" xmlns:xlink="http://www.w3.org/1999/xlink">
<g id="graph0" class="graph" transform="scale(1 1) rotate(0) translate(4 1214)">
<title>fx_graph</title>
<polygon fill="white" stroke="transparent" points="-4,4 -4,-1214 1054,-1214 1054,4 -4,4"/>
<g id="clust1" class="cluster">
<title>cluster_buf0</title>
<polygon fill="none" stroke="royalblue" stroke-width="2" points="8,-121 8,-1017 1042,-1017 1042,-121 8,-121"/>
<text text-anchor="middle" x="525" y="-1001.8" font-family="Times,serif" font-size="14.00">buf0</text>
</g>
<!-- arg0_1 -->
<g id="node1" class="node">
<title>arg0_1</title>
<path fill="AliceBlue" stroke="black" d="M452.5,-1025.5C452.5,-1025.5 597.5,-1025.5 597.5,-1025.5 603.5,-1025.5 609.5,-1031.5 609.5,-1037.5 609.5,-1037.5 609.5,-1197.5 609.5,-1197.5 609.5,-1203.5 603.5,-1209.5 597.5,-1209.5 597.5,-1209.5 452.5,-1209.5 452.5,-1209.5 446.5,-1209.5 440.5,-1203.5 440.5,-1197.5 440.5,-1197.5 440.5,-1037.5 440.5,-1037.5 440.5,-1031.5 446.5,-1025.5 452.5,-1025.5"/>
<text text-anchor="middle" x="525" y="-1194.3" font-family="Times,serif" font-size="14.00" fill="#000000">name=%arg0_1</text>
<polyline fill="none" stroke="black" points="440.5,-1186.5 609.5,-1186.5 "/>
<text text-anchor="middle" x="525" y="-1171.3" font-family="Times,serif" font-size="14.00" fill="#000000">op_code=placeholder</text>
<polyline fill="none" stroke="black" points="440.5,-1163.5 609.5,-1163.5 "/>
<text text-anchor="middle" x="525" y="-1148.3" font-family="Times,serif" font-size="14.00" fill="#000000">target=arg0_1</text>
<polyline fill="none" stroke="black" points="440.5,-1140.5 609.5,-1140.5 "/>
<text text-anchor="middle" x="525" y="-1125.3" font-family="Times,serif" font-size="14.00" fill="#000000">num_users=2</text>
<polyline fill="none" stroke="black" points="440.5,-1117.5 609.5,-1117.5 "/>
<text text-anchor="middle" x="525" y="-1102.3" font-family="Times,serif" font-size="14.00" fill="#000000">dtype=torch.float32</text>
<polyline fill="none" stroke="black" points="440.5,-1094.5 609.5,-1094.5 "/>
<text text-anchor="middle" x="525" y="-1079.3" font-family="Times,serif" font-size="14.00" fill="#000000">shape=(10,)</text>
<polyline fill="none" stroke="black" points="440.5,-1071.5 609.5,-1071.5 "/>
<text text-anchor="middle" x="525" y="-1056.3" font-family="Times,serif" font-size="14.00" fill="#000000">requires_grad=False</text>
<polyline fill="none" stroke="black" points="440.5,-1048.5 609.5,-1048.5 "/>
<text text-anchor="middle" x="525" y="-1033.3" font-family="Times,serif" font-size="14.00" fill="#000000">stride=(1,)</text>
</g>
<!-- sin -->
<g id="node3" class="node">
<title>sin</title>
<path fill="#ffe4e1" stroke="black" d="M546,-732.5C546,-732.5 1022,-732.5 1022,-732.5 1028,-732.5 1034,-738.5 1034,-744.5 1034,-744.5 1034,-973.5 1034,-973.5 1034,-979.5 1028,-985.5 1022,-985.5 1022,-985.5 546,-985.5 546,-985.5 540,-985.5 534,-979.5 534,-973.5 534,-973.5 534,-744.5 534,-744.5 534,-738.5 540,-732.5 546,-732.5"/>
<text text-anchor="middle" x="784" y="-970.3" font-family="Times,serif" font-size="14.00" fill="#000000">name=%sin</text>
<polyline fill="none" stroke="black" points="534,-962.5 1034,-962.5 "/>
<text text-anchor="middle" x="784" y="-947.3" font-family="Times,serif" font-size="14.00" fill="#000000">op_code=call_function</text>
<polyline fill="none" stroke="black" points="534,-939.5 1034,-939.5 "/>
<text text-anchor="middle" x="784" y="-924.3" font-family="Times,serif" font-size="14.00" fill="#000000">target=torch.ops.aten.sin.default</text>
<polyline fill="none" stroke="black" points="534,-916.5 1034,-916.5 "/>
<text text-anchor="middle" x="784" y="-901.3" font-family="Times,serif" font-size="14.00" fill="#000000">num_users=1</text>
<polyline fill="none" stroke="black" points="534,-893.5 1034,-893.5 "/>
<text text-anchor="middle" x="784" y="-878.3" font-family="Times,serif" font-size="14.00" fill="#000000">dtype=torch.float32</text>
<polyline fill="none" stroke="black" points="534,-870.5 1034,-870.5 "/>
<text text-anchor="middle" x="784" y="-855.3" font-family="Times,serif" font-size="14.00" fill="#000000">shape=(10,)</text>
<polyline fill="none" stroke="black" points="534,-847.5 1034,-847.5 "/>
<text text-anchor="middle" x="784" y="-832.3" font-family="Times,serif" font-size="14.00" fill="#000000">requires_grad=False</text>
<polyline fill="none" stroke="black" points="534,-824.5 1034,-824.5 "/>
<text text-anchor="middle" x="784" y="-809.3" font-family="Times,serif" font-size="14.00" fill="#000000">stride=(1,)</text>
<polyline fill="none" stroke="black" points="534,-801.5 1034,-801.5 "/>
<text text-anchor="middle" x="784" y="-786.3" font-family="Times,serif" font-size="14.00" fill="#000000">buf=buf0</text>
<polyline fill="none" stroke="black" points="534,-778.5 1034,-778.5 "/>
<text text-anchor="middle" x="784" y="-763.3" font-family="Times,serif" font-size="14.00" fill="#000000">n_origin=5</text>
<polyline fill="none" stroke="black" points="534,-755.5 1034,-755.5 "/>
<text text-anchor="middle" x="784" y="-740.3" font-family="Times,serif" font-size="14.00" fill="#000000">file=pattern_test/main.py:5 return torch.sin(x)**2 + torch.cos(x)**2</text>
</g>
<!-- arg0_1&#45;&gt;sin -->
<g id="edge1" class="edge">
<title>arg0_1&#45;&gt;sin</title>
<path fill="none" stroke="black" d="M609.81,-1032.51C622.75,-1019.7 636.36,-1006.21 650.05,-992.66"/>
<polygon fill="black" stroke="black" points="652.57,-995.09 657.21,-985.57 647.64,-990.12 652.57,-995.09"/>
</g>
<!-- cos -->
<g id="node5" class="node">
<title>cos</title>
<path fill="Coral" stroke="black" d="M28,-732.5C28,-732.5 504,-732.5 504,-732.5 510,-732.5 516,-738.5 516,-744.5 516,-744.5 516,-973.5 516,-973.5 516,-979.5 510,-985.5 504,-985.5 504,-985.5 28,-985.5 28,-985.5 22,-985.5 16,-979.5 16,-973.5 16,-973.5 16,-744.5 16,-744.5 16,-738.5 22,-732.5 28,-732.5"/>
<text text-anchor="middle" x="266" y="-970.3" font-family="Times,serif" font-size="14.00" fill="#000000">name=%cos</text>
<polyline fill="none" stroke="black" points="16,-962.5 516,-962.5 "/>
<text text-anchor="middle" x="266" y="-947.3" font-family="Times,serif" font-size="14.00" fill="#000000">op_code=call_function</text>
<polyline fill="none" stroke="black" points="16,-939.5 516,-939.5 "/>
<text text-anchor="middle" x="266" y="-924.3" font-family="Times,serif" font-size="14.00" fill="#000000">target=torch.ops.aten.cos.default</text>
<polyline fill="none" stroke="black" points="16,-916.5 516,-916.5 "/>
<text text-anchor="middle" x="266" y="-901.3" font-family="Times,serif" font-size="14.00" fill="#000000">num_users=1</text>
<polyline fill="none" stroke="black" points="16,-893.5 516,-893.5 "/>
<text text-anchor="middle" x="266" y="-878.3" font-family="Times,serif" font-size="14.00" fill="#000000">dtype=torch.float32</text>
<polyline fill="none" stroke="black" points="16,-870.5 516,-870.5 "/>
<text text-anchor="middle" x="266" y="-855.3" font-family="Times,serif" font-size="14.00" fill="#000000">shape=(10,)</text>
<polyline fill="none" stroke="black" points="16,-847.5 516,-847.5 "/>
<text text-anchor="middle" x="266" y="-832.3" font-family="Times,serif" font-size="14.00" fill="#000000">requires_grad=False</text>
<polyline fill="none" stroke="black" points="16,-824.5 516,-824.5 "/>
<text text-anchor="middle" x="266" y="-809.3" font-family="Times,serif" font-size="14.00" fill="#000000">stride=(1,)</text>
<polyline fill="none" stroke="black" points="16,-801.5 516,-801.5 "/>
<text text-anchor="middle" x="266" y="-786.3" font-family="Times,serif" font-size="14.00" fill="#000000">buf=buf0</text>
<polyline fill="none" stroke="black" points="16,-778.5 516,-778.5 "/>
<text text-anchor="middle" x="266" y="-763.3" font-family="Times,serif" font-size="14.00" fill="#000000">n_origin=5</text>
<polyline fill="none" stroke="black" points="16,-755.5 516,-755.5 "/>
<text text-anchor="middle" x="266" y="-740.3" font-family="Times,serif" font-size="14.00" fill="#000000">file=pattern_test/main.py:5 return torch.sin(x)**2 + torch.cos(x)**2</text>
</g>
<!-- arg0_1&#45;&gt;cos -->
<g id="edge2" class="edge">
<title>arg0_1&#45;&gt;cos</title>
<path fill="none" stroke="black" d="M440.19,-1032.51C427.25,-1019.7 413.64,-1006.21 399.95,-992.66"/>
<polygon fill="black" stroke="black" points="402.36,-990.12 392.79,-985.57 397.43,-995.09 402.36,-990.12"/>
</g>
<!-- output -->
<g id="node2" class="node">
<title>output</title>
<path fill="PowderBlue" stroke="black" d="M470.5,-0.5C470.5,-0.5 579.5,-0.5 579.5,-0.5 585.5,-0.5 591.5,-6.5 591.5,-12.5 591.5,-12.5 591.5,-80.5 591.5,-80.5 591.5,-86.5 585.5,-92.5 579.5,-92.5 579.5,-92.5 470.5,-92.5 470.5,-92.5 464.5,-92.5 458.5,-86.5 458.5,-80.5 458.5,-80.5 458.5,-12.5 458.5,-12.5 458.5,-6.5 464.5,-0.5 470.5,-0.5"/>
<text text-anchor="middle" x="525" y="-77.3" font-family="Times,serif" font-size="14.00" fill="#000000">name=%output</text>
<polyline fill="none" stroke="black" points="458.5,-69.5 591.5,-69.5 "/>
<text text-anchor="middle" x="525" y="-54.3" font-family="Times,serif" font-size="14.00" fill="#000000">op_code=output</text>
<polyline fill="none" stroke="black" points="458.5,-46.5 591.5,-46.5 "/>
<text text-anchor="middle" x="525" y="-31.3" font-family="Times,serif" font-size="14.00" fill="#000000">target=output</text>
<polyline fill="none" stroke="black" points="458.5,-23.5 591.5,-23.5 "/>
<text text-anchor="middle" x="525" y="-8.3" font-family="Times,serif" font-size="14.00" fill="#000000">num_users=0</text>
</g>
<!-- pow_1 -->
<g id="node4" class="node">
<title>pow_1</title>
<path fill="#fff0f5" stroke="black" d="M546,-419.5C546,-419.5 1022,-419.5 1022,-419.5 1028,-419.5 1034,-425.5 1034,-431.5 1034,-431.5 1034,-683.5 1034,-683.5 1034,-689.5 1028,-695.5 1022,-695.5 1022,-695.5 546,-695.5 546,-695.5 540,-695.5 534,-689.5 534,-683.5 534,-683.5 534,-431.5 534,-431.5 534,-425.5 540,-419.5 546,-419.5"/>
<text text-anchor="middle" x="784" y="-680.3" font-family="Times,serif" font-size="14.00" fill="#000000">name=%pow_1</text>
<polyline fill="none" stroke="black" points="534,-672.5 1034,-672.5 "/>
<text text-anchor="middle" x="784" y="-657.3" font-family="Times,serif" font-size="14.00" fill="#000000">op_code=call_function</text>
<polyline fill="none" stroke="black" points="534,-649.5 1034,-649.5 "/>
<text text-anchor="middle" x="784" y="-634.3" font-family="Times,serif" font-size="14.00" fill="#000000">target=torch.ops.aten.pow.Tensor_Scalar</text>
<polyline fill="none" stroke="black" points="534,-626.5 1034,-626.5 "/>
<text text-anchor="middle" x="784" y="-611.3" font-family="Times,serif" font-size="14.00" fill="#000000">args=(2,)</text>
<polyline fill="none" stroke="black" points="534,-603.5 1034,-603.5 "/>
<text text-anchor="middle" x="784" y="-588.3" font-family="Times,serif" font-size="14.00" fill="#000000">num_users=1</text>
<polyline fill="none" stroke="black" points="534,-580.5 1034,-580.5 "/>
<text text-anchor="middle" x="784" y="-565.3" font-family="Times,serif" font-size="14.00" fill="#000000">dtype=torch.float32</text>
<polyline fill="none" stroke="black" points="534,-557.5 1034,-557.5 "/>
<text text-anchor="middle" x="784" y="-542.3" font-family="Times,serif" font-size="14.00" fill="#000000">shape=(10,)</text>
<polyline fill="none" stroke="black" points="534,-534.5 1034,-534.5 "/>
<text text-anchor="middle" x="784" y="-519.3" font-family="Times,serif" font-size="14.00" fill="#000000">requires_grad=False</text>
<polyline fill="none" stroke="black" points="534,-511.5 1034,-511.5 "/>
<text text-anchor="middle" x="784" y="-496.3" font-family="Times,serif" font-size="14.00" fill="#000000">stride=(1,)</text>
<polyline fill="none" stroke="black" points="534,-488.5 1034,-488.5 "/>
<text text-anchor="middle" x="784" y="-473.3" font-family="Times,serif" font-size="14.00" fill="#000000">buf=buf0</text>
<polyline fill="none" stroke="black" points="534,-465.5 1034,-465.5 "/>
<text text-anchor="middle" x="784" y="-450.3" font-family="Times,serif" font-size="14.00" fill="#000000">n_origin=5</text>
<polyline fill="none" stroke="black" points="534,-442.5 1034,-442.5 "/>
<text text-anchor="middle" x="784" y="-427.3" font-family="Times,serif" font-size="14.00" fill="#000000">file=pattern_test/main.py:5 return torch.sin(x)**2 + torch.cos(x)**2</text>
</g>
<!-- sin&#45;&gt;pow_1 -->
<g id="edge3" class="edge">
<title>sin&#45;&gt;pow_1</title>
<path fill="none" stroke="black" d="M784,-732.29C784,-723.66 784,-714.92 784,-706.19"/>
<polygon fill="black" stroke="black" points="787.5,-705.95 784,-695.95 780.5,-705.95 787.5,-705.95"/>
</g>
<!-- add -->
<g id="node7" class="node">
<title>add</title>
<path fill="#ffe4e1" stroke="black" d="M287,-129.5C287,-129.5 763,-129.5 763,-129.5 769,-129.5 775,-135.5 775,-141.5 775,-141.5 775,-370.5 775,-370.5 775,-376.5 769,-382.5 763,-382.5 763,-382.5 287,-382.5 287,-382.5 281,-382.5 275,-376.5 275,-370.5 275,-370.5 275,-141.5 275,-141.5 275,-135.5 281,-129.5 287,-129.5"/>
<text text-anchor="middle" x="525" y="-367.3" font-family="Times,serif" font-size="14.00" fill="#000000">name=%add</text>
<polyline fill="none" stroke="black" points="275,-359.5 775,-359.5 "/>
<text text-anchor="middle" x="525" y="-344.3" font-family="Times,serif" font-size="14.00" fill="#000000">op_code=call_function</text>
<polyline fill="none" stroke="black" points="275,-336.5 775,-336.5 "/>
<text text-anchor="middle" x="525" y="-321.3" font-family="Times,serif" font-size="14.00" fill="#000000">target=torch.ops.aten.add.Tensor</text>
<polyline fill="none" stroke="black" points="275,-313.5 775,-313.5 "/>
<text text-anchor="middle" x="525" y="-298.3" font-family="Times,serif" font-size="14.00" fill="#000000">num_users=1</text>
<polyline fill="none" stroke="black" points="275,-290.5 775,-290.5 "/>
<text text-anchor="middle" x="525" y="-275.3" font-family="Times,serif" font-size="14.00" fill="#000000">dtype=torch.float32</text>
<polyline fill="none" stroke="black" points="275,-267.5 775,-267.5 "/>
<text text-anchor="middle" x="525" y="-252.3" font-family="Times,serif" font-size="14.00" fill="#000000">shape=(10,)</text>
<polyline fill="none" stroke="black" points="275,-244.5 775,-244.5 "/>
<text text-anchor="middle" x="525" y="-229.3" font-family="Times,serif" font-size="14.00" fill="#000000">requires_grad=False</text>
<polyline fill="none" stroke="black" points="275,-221.5 775,-221.5 "/>
<text text-anchor="middle" x="525" y="-206.3" font-family="Times,serif" font-size="14.00" fill="#000000">stride=(1,)</text>
<polyline fill="none" stroke="black" points="275,-198.5 775,-198.5 "/>
<text text-anchor="middle" x="525" y="-183.3" font-family="Times,serif" font-size="14.00" fill="#000000">buf=buf0</text>
<polyline fill="none" stroke="black" points="275,-175.5 775,-175.5 "/>
<text text-anchor="middle" x="525" y="-160.3" font-family="Times,serif" font-size="14.00" fill="#000000">n_origin=5</text>
<polyline fill="none" stroke="black" points="275,-152.5 775,-152.5 "/>
<text text-anchor="middle" x="525" y="-137.3" font-family="Times,serif" font-size="14.00" fill="#000000">file=pattern_test/main.py:5 return torch.sin(x)**2 + torch.cos(x)**2</text>
</g>
<!-- pow_1&#45;&gt;add -->
<g id="edge4" class="edge">
<title>pow_1&#45;&gt;add</title>
<path fill="none" stroke="black" d="M665.49,-419.46C657.19,-409.86 648.82,-400.19 640.54,-390.6"/>
<polygon fill="black" stroke="black" points="643.1,-388.22 633.91,-382.94 637.8,-392.79 643.1,-388.22"/>
</g>
<!-- pow_2 -->
<g id="node6" class="node">
<title>pow_2</title>
<path fill="#fff0f5" stroke="black" d="M28,-419.5C28,-419.5 504,-419.5 504,-419.5 510,-419.5 516,-425.5 516,-431.5 516,-431.5 516,-683.5 516,-683.5 516,-689.5 510,-695.5 504,-695.5 504,-695.5 28,-695.5 28,-695.5 22,-695.5 16,-689.5 16,-683.5 16,-683.5 16,-431.5 16,-431.5 16,-425.5 22,-419.5 28,-419.5"/>
<text text-anchor="middle" x="266" y="-680.3" font-family="Times,serif" font-size="14.00" fill="#000000">name=%pow_2</text>
<polyline fill="none" stroke="black" points="16,-672.5 516,-672.5 "/>
<text text-anchor="middle" x="266" y="-657.3" font-family="Times,serif" font-size="14.00" fill="#000000">op_code=call_function</text>
<polyline fill="none" stroke="black" points="16,-649.5 516,-649.5 "/>
<text text-anchor="middle" x="266" y="-634.3" font-family="Times,serif" font-size="14.00" fill="#000000">target=torch.ops.aten.pow.Tensor_Scalar</text>
<polyline fill="none" stroke="black" points="16,-626.5 516,-626.5 "/>
<text text-anchor="middle" x="266" y="-611.3" font-family="Times,serif" font-size="14.00" fill="#000000">args=(2,)</text>
<polyline fill="none" stroke="black" points="16,-603.5 516,-603.5 "/>
<text text-anchor="middle" x="266" y="-588.3" font-family="Times,serif" font-size="14.00" fill="#000000">num_users=1</text>
<polyline fill="none" stroke="black" points="16,-580.5 516,-580.5 "/>
<text text-anchor="middle" x="266" y="-565.3" font-family="Times,serif" font-size="14.00" fill="#000000">dtype=torch.float32</text>
<polyline fill="none" stroke="black" points="16,-557.5 516,-557.5 "/>
<text text-anchor="middle" x="266" y="-542.3" font-family="Times,serif" font-size="14.00" fill="#000000">shape=(10,)</text>
<polyline fill="none" stroke="black" points="16,-534.5 516,-534.5 "/>
<text text-anchor="middle" x="266" y="-519.3" font-family="Times,serif" font-size="14.00" fill="#000000">requires_grad=False</text>
<polyline fill="none" stroke="black" points="16,-511.5 516,-511.5 "/>
<text text-anchor="middle" x="266" y="-496.3" font-family="Times,serif" font-size="14.00" fill="#000000">stride=(1,)</text>
<polyline fill="none" stroke="black" points="16,-488.5 516,-488.5 "/>
<text text-anchor="middle" x="266" y="-473.3" font-family="Times,serif" font-size="14.00" fill="#000000">buf=buf0</text>
<polyline fill="none" stroke="black" points="16,-465.5 516,-465.5 "/>
<text text-anchor="middle" x="266" y="-450.3" font-family="Times,serif" font-size="14.00" fill="#000000">n_origin=5</text>
<polyline fill="none" stroke="black" points="16,-442.5 516,-442.5 "/>
<text text-anchor="middle" x="266" y="-427.3" font-family="Times,serif" font-size="14.00" fill="#000000">file=pattern_test/main.py:5 return torch.sin(x)**2 + torch.cos(x)**2</text>
</g>
<!-- cos&#45;&gt;pow_2 -->
<g id="edge5" class="edge">
<title>cos&#45;&gt;pow_2</title>
<path fill="none" stroke="black" d="M266,-732.29C266,-723.66 266,-714.92 266,-706.19"/>
<polygon fill="black" stroke="black" points="269.5,-705.95 266,-695.95 262.5,-705.95 269.5,-705.95"/>
</g>
<!-- pow_2&#45;&gt;add -->
<g id="edge6" class="edge">
<title>pow_2&#45;&gt;add</title>
<path fill="none" stroke="black" d="M384.51,-419.46C392.81,-409.86 401.18,-400.19 409.46,-390.6"/>
<polygon fill="black" stroke="black" points="412.2,-392.79 416.09,-382.94 406.9,-388.22 412.2,-392.79"/>
</g>
<!-- add&#45;&gt;output -->
<g id="edge7" class="edge">
<title>add&#45;&gt;output</title>
<path fill="none" stroke="black" d="M525,-129.21C525,-120.12 525,-111.26 525,-102.93"/>
<polygon fill="black" stroke="black" points="528.5,-102.7 525,-92.7 521.5,-102.7 528.5,-102.7"/>
</g>
</g>
</svg>
